HIERARCHY
ROOT Hips
{
  OFFSET 265.287 66.7526 -254.649
  CHANNELS 6 Xposition Yposition Zposition Zrotation Xrotation Yrotation
  JOINT LeftUpLeg
  {
    OFFSET 8.64259 1.95398 -2.38835
    CHANNELS 3 Zrotation Xrotation Yrotation
    JOINT LeftLeg
    {
      OFFSET 43.7702 0 0
      CHANNELS 3 Zrotation Xrotation Yrotation
      JOINT LeftFoot
      {
        OFFSET 40.6238 0 0
        CHANNELS 3 Zrotation Xrotation Yrotation
        JOINT LeftToeBase
        {
          OFFSET 12.7242 0 0
          CHANNELS 3 Zrotation Xrotation Yrotation
          End Site
          {
            OFFSET 0 0 0
          }
        }
      }
    }
  }
  JOINT RightUpLeg
  {
    OFFSET -8.2249 1.95398 -2.59336
    CHANNELS 3 Zrotation Xrotation Yrotation
    JOINT RightLeg
    {
      OFFSET 43.5653 0 0
      CHANNELS 3 Zrotation Xrotation Yrotation
      JOINT RightFoot
      {
        OFFSET 40.6238 0 0
        CHANNELS 3 Zrotation Xrotation Yrotation
        JOINT RightToeBase
        {
          OFFSET 12.7242 0 0
          CHANNELS 3 Zrotation Xrotation Yrotation
          End Site
          {
            OFFSET 0 0 0
          }
        }
      }
    }
  }
  JOINT Spine
  {
    OFFSET 0.165834 0.87714 6.61349
    CHANNELS 3 Zrotation Xrotation Yrotation
    JOINT Spine1
    {
      OFFSET 7.38963 1.71661e-005 0
      CHANNELS 3 Zrotation Xrotation Yrotation
      JOINT Spine2
      {
        OFFSET 11.9445 1.14441e-005 0
        CHANNELS 3 Zrotation Xrotation Yrotation
        JOINT Spine3
        {
          OFFSET 14.7254 4.19617e-005 0
          CHANNELS 3 Zrotation Xrotation Yrotation
          JOINT Spine4
          {
            OFFSET 10.9679 0 0
            CHANNELS 3 Zrotation Xrotation Yrotation
            JOINT RightShoulder
            {
              OFFSET 2.46616 -1.6653 3.69651
              CHANNELS 3 Zrotation Xrotation Yrotation
              JOINT RightArm
              {
                OFFSET 13.0012 0 0
                CHANNELS 3 Zrotation Xrotation Yrotation
                JOINT RightForeArm
                {
                  OFFSET 28.7848 1.52588e-005 0
                  CHANNELS 3 Zrotation Xrotation Yrotation
                  JOINT RightHand
                  {
                    OFFSET 26.5688 1.52588e-005 0
                    CHANNELS 3 Zrotation Xrotation Yrotation
                    End Site
                    {
                      OFFSET 0 0 0
                    }
                  }
                }
              }
            }
            JOINT LeftShoulder
            {
              OFFSET 2.38034 -1.29275 -3.7523
              CHANNELS 3 Zrotation Xrotation Yrotation
              JOINT LeftArm
              {
                OFFSET 16.3182 6.10351e-005 0
                CHANNELS 3 Zrotation Xrotation Yrotation
                JOINT LeftForeArm
                {
                  OFFSET 27.0901 0 0
                  CHANNELS 3 Zrotation Xrotation Yrotation
                  JOINT LeftHand
                  {
                    OFFSET 24.5451 1.52588e-005 0
                    CHANNELS 3 Zrotation Xrotation Yrotation
                    End Site
                    {
                      OFFSET 0 0 0
                    }
                  }
                }
              }
            }
            JOINT Neck
            {
              OFFSET 5.0226 -0.0266342 0
              CHANNELS 3 Zrotation Xrotation Yrotation
              JOINT Head
              {
                OFFSET 6.69364 2.86102e-005 0
                CHANNELS 3 Zrotation Xrotation Yrotation
                End Site
                {
                  OFFSET 0 0 0
                }
              }
            }
          }
        }
      }
    }
  }
}
MOTION
Frames:	13
Frame Time:	0.0416667
-3.88701 97.1187 -5.88878 118.606 -84.7406 117.744 -173.616 1.50069 90.8644 -11.9172 8.18803 2.41251 64.4785 2.50357 1.09898 29.2452 -0.338357 1.76933 174.982 2.52574 86.3888 -13.7474 -4.38011 -1.5246 65.39 -0.826437 5.57865 27.7961 0.481983 -2.72421 -0.238995 7.30484 -90.1721 12.2635 -0.556469 -0.280954 0.592685 -0.568295 -0.256197 -21.9429 -0.446312 -0.435215 -1.93026 -0.446307 -0.435215 100.827 -50.6322 -84.2371 28.6318 -9.9697 -7.85987 2.03897 -17.4908 -13.1579 -12.0148 -0.719362 1.83613 -81.6948 -47.8465 90.8691 -31.563 14.0876 -19.0401 4.32527 27.8668 -7.51217 1.8214 -0.0656695 -3.69084 15.4489 1.4752 -2.96826 -15.049 1.56345 6.75768 
-3.90651 97.1077 -5.94546 118.272 -84.46 117.368 -173.693 1.23179 90.8488 -11.3905 6.63721 2.50962 64.7123 2.4093 -0.422748 28.4973 -0.00677161 0.809351 174.924 2.50419 86.3255 -13.8694 -4.13616 -1.49547 65.2044 -0.577891 6.02407 28.5374 0.428809 -3.3443 -0.259995 7.32812 -90.1559 12.217 -0.590574 -0.245315 0.546208 -0.600789 -0.219096 -21.9896 -0.489546 -0.411466 -1.97691 -0.489543 -0.411474 101.012 -50.7935 -83.9463 28.4342 -10.5843 -7.95315 2.36774 -16.4648 -12.6104 -11.2187 -0.487476 -0.122844 -81.8394 -47.3966 90.6101 -31.6007 15.3825 -18.8017 2.55468 20.9251 -6.48745 6.07311 0.0224167 -2.8111 11.4269 -1.77995 2.45302 -9.16212 -2.07732 -4.35675 
-3.91709 97.1181 -5.96629 118.058 -84.5145 117.207 -173.665 1.28111 90.8755 -11.408 6.97691 2.49842 64.7538 2.49239 -0.0239802 28.5753 -0.0547007 1.02156 175.084 2.64149 86.4342 -14.065 -3.76334 -1.61488 65.2752 -0.517488 6.34944 28.1117 0.481495 -3.15996 -0.272488 7.34701 -90.1649 12.1792 -0.619644 -0.260162 0.508322 -0.630495 -0.234797 -22.0275 -0.51281 -0.434362 -2.01483 -0.512812 -0.434374 100.946 -50.8388 -84.0472 28.276 -10.6951 -8.19314 2.49752 -16.1931 -12.7648 -11.2039 -0.592701 1.00554 -81.8126 -47.7135 90.6758 -31.2383 15.3315 -18.7975 2.54953 20.7904 -6.5896 5.87117 0.0198683 -2.83767 11.0736 -1.78943 0.652037 -7.71363 -1.86119 -1.15976 
-3.92436 97.1184 -6.03538 117.689 -84.4711 116.879 -173.703 1.31903 90.8886 -11.3249 7.09417 2.55565 64.5338 2.4283 0.0739398 28.8432 -0.126218 0.940974 175.089 2.85799 86.4358 -14.3947 -3.4476 -1.5899 65.3098 -0.347863 6.86896 28.0045 0.517953 -3.30624 -0.289796 7.37397 -90.1643 12.1252 -0.653742 -0.255707 0.454413 -0.66436 -0.228335 -22.0815 -0.546669 -0.440355 -2.06886 -0.546674 -0.440365 100.817 -50.8158 -84.248 28.3595 -10.6602 -8.13887 2.3204 -16.2071 -12.9588 -11.0416 -0.562442 0.769355 -81.8482 -47.6196 90.6132 -31.3516 15.2065 -18.7253 2.63243 20.7628 -6.58942 6.10851 0.0153575 -2.94219 11.5787 -1.75884 1.42704 -8.34142 -1.9539 -2.48298 
-3.93515 97.1171 -6.10363 117.909 -84.5706 116.988 -173.697 1.33131 90.8102 -11.2731 6.91702 2.48843 64.7089 2.38943 -0.269835 28.2839 -0.0147947 1.42683 174.974 3.19872 86.2244 -14.8164 -3.42101 -1.51233 65.326 -0.154172 7.31426 27.8679 0.518412 -3.11637 -0.270763 7.41726 -90.1576 12.0387 -0.612667 -0.247372 0.36794 -0.622966 -0.22017 -22.1679 -0.510004 -0.420065 -2.15525 -0.509998 -0.420065 100.924 -50.7101 -84.0845 28.394 -10.6281 -8.2313 2.14229 -16.6426 -13.0639 -11.2344 -0.554061 0.573469 -81.8479 -47.6636 90.6169 -31.3873 15.2204 -18.8104 2.71373 20.701 -6.73286 6.30084 0.00929646 -3.05358 12.5177 -1.47644 3.2983 -9.86649 -1.96542 -5.23647 
-3.92095 97.0852 -6.2345 115.805 -84.6149 114.813 -173.727 1.5897 90.7367 -11.1888 6.84276 2.43925 64.53 2.27893 -0.431438 28.276 0.00458962 1.28441 174.924 3.80522 86.0582 -15.3902 -3.2671 -1.44251 65.1723 0.23201 7.84054 28.1922 0.458981 -3.0916 -0.25667 7.46268 -90.1524 11.948 -0.582082 -0.241044 0.277134 -0.592134 -0.215198 -22.2586 -0.482737 -0.40484 -2.24597 -0.48274 -0.40485 101.136 -50.5441 -83.7608 28.5623 -10.5911 -8.30919 1.97722 -16.7037 -13.3407 -11.2352 -0.584789 0.904056 -82.0682 -47.7594 90.2811 -31.3011 14.9449 -18.9924 3.06709 21.5001 -7.04653 5.45606 -0.0342126 -3.54375 12.207 -1.59418 2.26388 -8.8156 -1.92883 -3.90091 
-3.95697 97.0578 -6.40195 110.425 -84.5693 109.512 -173.708 2.34682 90.752 -11.4886 7.49913 2.3751 64.4307 2.32469 0.410554 28.5934 -0.0348841 0.791495 175.06 4.54935 86.1479 -15.8036 -2.75217 -1.4159 65.0261 0.580305 8.26214 28.2817 0.474033 -3.34568 -0.273799 7.49488 -90.1523 11.8835 -0.616133 -0.237634 0.212727 -0.625997 -0.21029 -22.3231 -0.516227 -0.411825 -2.31049 -0.51623 -0.411825 101.117 -50.5848 -83.7899 28.6248 -10.6707 -8.44546 2.0244 -16.5812 -13.361 -11.516 -0.577385 0.669779 -82.1153 -47.9509 90.2233 -30.9709 14.7167 -19.186 3.19371 20.9471 -7.21565 5.40142 -0.0164628 -3.28032 12.5174 -1.58894 2.46826 -9.07144 -1.96698 -3.97097 
-3.95653 97.0534 -6.68271 107.693 -84.2384 106.955 -173.789 2.8733 90.8184 -11.7578 7.88641 2.48649 64.35 2.30378 0.380843 28.5492 -0.0374435 0.936479 175.08 4.90415 86.2656 -15.9382 -2.18841 -1.30231 64.8027 0.827322 8.64803 28.1827 0.461822 -3.10294 -0.315612 7.59448 -90.1754 11.6841 -0.709999 -0.275484 0.013341 -0.721434 -0.243979 -22.5227 -0.594383 -0.476132 -2.5101 -0.594384 -0.476146 101.019 -50.5063 -83.9424 28.674 -10.6388 -8.69152 1.98774 -16.5715 -13.448 -11.639 -0.574564 0.579847 -81.9605 -48.1031 90.4755 -30.2446 14.7032 -19.8165 3.20108 20.9914 -7.37097 4.94446 -0.00837809 -3.08386 12.9153 -1.53093 2.8069 -8.85805 -2.00528 -4.0849 
-4.04453 97.0168 -7.10828 106.438 -84.4684 105.827 -173.739 3.69249 90.9549 -12.4762 7.5303 2.46686 64.5318 2.21997 0.0608014 28.3186 0.0243724 1.00833 175.336 5.68166 86.468 -16.5234 -1.99032 -1.37414 64.602 1.03479 8.89346 28.1874 0.464032 -3.12675 -0.263292 7.73222 -90.1805 11.4086 -0.608049 -0.298099 -0.262191 -0.620583 -0.271061 -22.7979 -0.490351 -0.467069 -2.78524 -0.49035 -0.467068 100.909 -50.4102 -84.1149 28.6169 -10.542 -9.01253 1.55674 -17.3183 -13.6212 -10.3289 -0.477052 0.199054 -82.3759 -48.3971 89.8564 -28.8253 14.6816 -20.3237 3.22901 19.542 -8.14164 4.80741 -0.0103159 -3.09141 12.8554 -1.65513 3.5553 -7.65461 -2.33195 -4.70567 
-4.07385 97.0965 -7.73244 100.8 -84.1342 100.134 -174.06 4.22919 90.7294 -11.6278 7.70776 2.58906 63.5707 1.98017 -0.207886 28.2817 0.0286305 1.06244 175.196 6.36768 86.3285 -16.0967 -1.92777 -1.12971 63.8106 1.2678 8.5627 28.3598 0.380918 -2.68303 -0.289865 7.92829 -90.1659 11.0166 -0.653845 -0.267321 -0.654231 -0.664976 -0.238283 -23.1902 -0.543276 -0.451465 -3.1775 -0.54328 -0.451471 100.892 -50.4366 -84.141 28.0869 -10.4922 -9.29928 0.502819 -17.6592 -15.2685 -9.05356 -0.378167 -0.326786 -83.0014 -47.6001 88.8132 -28.4325 13.8172 -20.3491 4.52543 18.1693 -10.722 4.24956 -0.0408368 -3.50917 13.9342 -1.76353 3.74401 -6.83362 -2.56176 -4.13611 
-4.17726 97.0609 -8.70968 95.7213 -83.939 95.0401 -174.413 5.63192 90.5364 -12.1029 7.38432 2.7101 63.308 1.82008 -0.653712 27.8481 0.138218 1.23774 175.421 7.71439 86.4064 -16.5062 -1.85798 -1.13762 63.2274 1.52249 8.17528 28.698 0.332951 -2.76686 -0.276605 8.25917 -90.1557 10.3548 -0.622283 -0.255145 -1.31602 -0.632911 -0.227514 -23.8519 -0.516842 -0.430384 -3.83921 -0.516836 -0.430376 100.684 -50.1558 -84.4709 27.1338 -10.6859 -10.6435 0.249656 -16.5125 -16.1805 -9.0976 -0.251611 -2.08182 -83.2984 -47.1842 88.3068 -26.2008 13.8783 -21.7714 5.38548 15.0801 -14.643 3.88671 -0.0379422 -3.42794 15.1057 -2.00818 3.86845 -4.3262 -2.97029 -3.40896 
-4.2406 96.9676 -10.1612 83.1468 -83.3664 82.5624 -174.865 8.38121 90.2277 -12.6995 8.01232 2.71688 62.5159 1.72664 0.171401 27.9364 0.157318 0.865501 175.463 10.2993 86.4146 -16.9649 -1.90102 -0.745686 62.5185 1.58451 7.25647 28.7322 0.260784 -2.1964 -0.238034 8.6139 -90.1921 9.64512 -0.561309 -0.337589 -2.02575 -0.575613 -0.312564 -24.5612 -0.433898 -0.49068 -4.54856 -0.433891 -0.490674 100.213 -49.4753 -85.2288 25.5692 -10.7562 -12.5227 0.227927 -13.7897 -17.6404 -9.78435 -0.160316 -3.40925 -83.9132 -47.2905 87.3574 -23.0824 13.3609 -24.6249 5.57809 10.9678 -18.032 4.05834 -0.0710957 -4.01268 17.0231 -2.25713 5.52667 -2.51291 -3.80323 -4.76163 
-4.32987 96.7012 -11.9817 61.6896 -81.8498 61.196 -175.795 13.5064 89.747 -14.1362 7.03123 2.79858 61.9149 1.636 -0.587862 27.5324 0.259778 1.02588 175.395 15.2481 86.243 -18.2686 -2.01938 0.0393205 62.2939 1.21554 6.07349 28.2722 0.335493 -2.18139 -0.191194 8.91739 -90.2099 9.03824 -0.4751 -0.382589 -2.63266 -0.491476 -0.361322 -25.1678 -0.338161 -0.507697 -5.15512 -0.338153 -0.507697 99.8046 -48.7737 -85.9023 23.5597 -10.7137 -15.712 0.529214 -11.143 -18.9144 -11.1155 -0.205322 -3.1543 -84.3711 -46.58 86.5533 -20.3903 12.9975 -28.3487 5.99675 7.15523 -23.5202 4.03497 -0.140987 -5.27142 20.5026 -1.97209 7.52973 -2.4486 -4.34731 -7.62644 
